<?xml version="1.0" standalone="no"?><!DOCTYPE svg PUBLIC "-//W3C//DTD SVG 1.1//EN" "http://www.w3.org/Graphics/SVG/1.1/DTD/svg11.dtd"><svg t="1544772728905" class="icon" style="" viewBox="0 0 1024 1024" version="1.1" xmlns="http://www.w3.org/2000/svg" p-id="4334" xmlns:xlink="http://www.w3.org/1999/xlink" width="200" height="200"><defs><style type="text/css"></style></defs><path d="M722 932H302c-57.9 0-105-47.1-105-105V309c0-11.6 9.4-21 21-21s21 9.4 21 21v518c0 34.7 28.3 63 63 63h420c34.7 0 63-28.3 63-63V309c0-11.6 9.4-21 21-21s21 9.4 21 21v518c0 57.9-47.1 105-105 105zM911 236.1H113c-11.6 0-21-9.4-21-21s9.4-21 21-21h798c11.6 0 21 9.4 21 21s-9.4 21-21 21z" p-id="4335"></path><path d="M638 218c-11.6 0-21-9.4-21-21 0-34.7-28.3-63-63-63h-84c-34.7 0-63 28.3-63 63 0 11.6-9.4 21-21 21s-21-9.4-21-21c0-57.9 47.1-105 105-105h84c57.9 0 105 47.1 105 105 0 11.6-9.4 21-21 21zM343.1 808.9c-11.6 0-21-9.4-21-21V326c0-11.6 9.4-21 21-21s21 9.4 21 21v461.8c0 11.7-9.4 21.1-21 21.1zM511.1 808.9c-11.6 0-21-9.4-21-21V326c0-11.6 9.4-21 21-21s21 9.4 21 21v461.8c0 11.7-9.4 21.1-21 21.1zM679.1 808.9c-11.6 0-21-9.4-21-21V326c0-11.6 9.4-21 21-21s21 9.4 21 21v461.8c0 11.7-9.4 21.1-21 21.1z" p-id="4336"></path></svg>